# xmcd
#
# Track frame offsets:
#	150
#	5013
#	18736
#	29440
#	37954
#	47172
#	59101
#	76869
#	87637
#	96772
#	108365
#	119488
#	127480
#	137592
#	148721
#	160876
#	172406
#	179849
#	184811
#	195053
#	203020
#	219447
#	239608
#	251364
#	270016
#	285637
#	297641
#
# Disc length: 4379 seconds
#
# Revision: 1
# Processed by: cddbd v1.5.1PL0 Copyright (c) Steve Scherf et al.
# Submitted via: audiograbber 1.83.01
#
DISCID=9f11191b
DTITLE=Voice Of da Streetz presents Jay-Z - Rap Phenomenon III
DYEAR=2005
DGENRE=A Cappella
TTITLE0=intro (legendary super star)
TTITLE1=runnin (hovtios way rmx)
TTITLE2=that's the anthem (h to the izzo rmx)
TTITLE3=terror (ft. biggie) Jay-Z rmx
TTITLE4=never sprung
TTITLE5=I'm a hustla
TTITLE6=hood stories  ft. 50 Cent
TTITLE7=106 'n' park and jays dinner
TTITLE8=what's my mutha fuckin' name (boss)
TTITLE9=justify my thug (remix)
TTITLE10=supa ugly (remix)
TTITLE11=gonna cost you more
TTITLE12=I need a resolution (ft. Beyonce)
TTITLE13=like a pimp (dirty south version)
TTITLE14=spanish harlem announcemnet
TTITLE15=threats (remix)
TTITLE16=yes y'all jigga man
TTITLE17=love in spanish (ft.Angie Martinez)
TTITLE18=baby (remix)
TTITLE19=who U know fresher
TTITLE20=one thing (ft.Amerie) (remix)
TTITLE21=Dirt off your shoulder - lying from you (live)
TTITLE22=big pimpin' - papercut (live)
TTITLE23=igga what - faint (live)
TTITLE24=numb - encore (live)
TTITLE25=izzo - in the end (live)
TTITLE26=points of authority and 99 problems - one step closer (live)
EXTD=
EXTT0=
EXTT1=
EXTT2=
EXTT3=
EXTT4=
EXTT5=
EXTT6=
EXTT7=
EXTT8=
EXTT9=
EXTT10=
EXTT11=
EXTT12=
EXTT13=
EXTT14=
EXTT15=
EXTT16=
EXTT17=
EXTT18=
EXTT19=
EXTT20=
EXTT21=
EXTT22=
EXTT23=
EXTT24=
EXTT25=
EXTT26=
PLAYORDER=
